<svg xmlns="http://www.w3.org/2000/svg">
  <symbol id="close" viewBox="0 0 357 357">
    <path d="M357 35.7L321.3 0 178.5 142.8 35.7 0 0 35.7l142.8 142.8L0 321.3 35.7 357l142.8-142.8L321.3 357l35.7-35.7-142.8-142.8z" />
  </symbol>
  <symbol id="facebook" viewBox="0 0 96.124 96.123">
    <path d="M72.089.02L59.624 0C45.62 0 36.57 9.285 36.57 23.656v10.907H24.037a1.96 1.96 0 0 0-1.96 1.961v15.803a1.96 1.96 0 0 0 1.96 1.96H36.57v39.876a1.96 1.96 0 0 0 1.96 1.96h16.352a1.96 1.96 0 0 0 1.96-1.96V54.287h14.654a1.96 1.96 0 0 0 1.96-1.96l.006-15.803a1.963 1.963 0 0 0-1.961-1.961H56.842v-9.246c0-4.444 1.059-6.7 6.848-6.7l8.397-.003a1.96 1.96 0 0 0 1.959-1.96V1.98A1.96 1.96 0 0 0 72.089.02z" />
  </symbol>
  <symbol id="im" viewBox="0 0 169.063 169.063">
    <path d="M122.406 0H46.654C20.929 0 0 20.93 0 46.655v75.752c0 25.726 20.929 46.655 46.654 46.655h75.752c25.727 0 46.656-20.93 46.656-46.655V46.655C169.063 20.93 148.133 0 122.406 0zm31.657 122.407c0 17.455-14.201 31.655-31.656 31.655H46.654C29.2 154.063 15 139.862 15 122.407V46.655C15 29.201 29.2 15 46.654 15h75.752c17.455 0 31.656 14.201 31.656 31.655v75.752z" />
    <path d="M84.531 40.97c-24.021 0-43.563 19.542-43.563 43.563 0 24.02 19.542 43.561 43.563 43.561s43.563-19.541 43.563-43.561c0-24.021-19.542-43.563-43.563-43.563zm0 72.123c-15.749 0-28.563-12.812-28.563-28.561 0-15.75 12.813-28.563 28.563-28.563s28.563 12.813 28.563 28.563c0 15.749-12.814 28.561-28.563 28.561zM129.921 28.251c-2.89 0-5.729 1.17-7.77 3.22a11.053 11.053 0 0 0-3.23 7.78c0 2.891 1.18 5.73 3.23 7.78 2.04 2.04 4.88 3.22 7.77 3.22 2.9 0 5.73-1.18 7.78-3.22 2.05-2.05 3.22-4.89 3.22-7.78 0-2.9-1.17-5.74-3.22-7.78-2.04-2.05-4.88-3.22-7.78-3.22z" />
  </symbol>
  <symbol id="left-arrow" viewBox="0 0 31.494 31.494">
    <path d="M10.273 5.009a1.112 1.112 0 0 1 1.587 0 1.12 1.12 0 0 1 0 1.571l-8.047 8.047h26.554c.619 0 1.127.492 1.127 1.111s-.508 1.127-1.127 1.127H3.813l8.047 8.032c.429.444.429 1.159 0 1.587a1.112 1.112 0 0 1-1.587 0L.321 16.532a1.12 1.12 0 0 1 0-1.571l9.952-9.952z" fill="#1e201d" />
  </symbol>
  <symbol id="magnifying-glass" viewBox="0 0 451 451">
    <path d="M447.05 428l-109.6-109.6c29.4-33.8 47.2-77.9 47.2-126.1C384.65 86.2 298.35 0 192.35 0 86.25 0 .05 86.3.05 192.3s86.3 192.3 192.3 192.3c48.2 0 92.3-17.8 126.1-47.2L428.05 447c2.6 2.6 6.1 4 9.5 4s6.9-1.3 9.5-4c5.2-5.2 5.2-13.8 0-19zM26.95 192.3c0-91.2 74.2-165.3 165.3-165.3 91.2 0 165.3 74.2 165.3 165.3s-74.1 165.4-165.3 165.4c-91.1 0-165.3-74.2-165.3-165.4z" />
  </symbol>
  <symbol id="mail" viewBox="0 0 31.012 31.012">
    <path d="M28.512 26.529H2.5a2.503 2.503 0 0 1-2.5-2.5V6.982c0-1.379 1.122-2.5 2.5-2.5h26.012c1.378 0 2.5 1.121 2.5 2.5v17.047c0 1.379-1.122 2.5-2.5 2.5zM2.5 5.482c-.827 0-1.5.673-1.5 1.5v17.047c0 .827.673 1.5 1.5 1.5h26.012c.827 0 1.5-.673 1.5-1.5V6.982c0-.827-.673-1.5-1.5-1.5H2.5z" />
    <path d="M15.506 18.018c-.665 0-1.33-.221-1.836-.662L.891 6.219a.5.5 0 1 1 .658-.754l12.778 11.137c.64.557 1.72.556 2.358 0L29.46 5.466a.497.497 0 0 1 .706.049.5.5 0 0 1-.048.705L17.342 17.355c-.506.442-1.171.663-1.836.663z" />
  </symbol>
  <symbol id="oclock" viewBox="0 0 472.912 472.912">
    <path d="M236.477.016C106.078.016 0 106.07 0 236.444c0 130.39 106.078 236.452 236.477 236.452 130.374 0 236.436-106.07 236.436-236.452C472.912 106.07 366.851.016 236.477.016zm0 438c-111.134 0-201.564-90.43-201.564-201.564 0-111.126 90.43-201.54 201.564-201.54 111.126 0 201.54 90.422 201.54 201.54-.001 111.134-90.415 201.564-201.54 201.564z" fill="#010002" />
    <path d="M236.452 61.354c-9.616 0-17.444 7.828-17.444 17.444v140.21H94.771c-9.624 0-17.444 7.836-17.444 17.468 0 9.616 7.828 17.444 17.444 17.444h141.681c9.624 0 17.444-7.828 17.444-17.444V78.798c0-9.624-7.82-17.444-17.444-17.444z" fill="#010002" />
  </symbol>
  <symbol id="ok" viewBox="0 0 95.481 95.481">
    <path d="M43.041 67.254c-7.402-.772-14.076-2.595-19.79-7.064-.709-.556-1.441-1.092-2.088-1.713-2.501-2.402-2.753-5.153-.774-7.988 1.693-2.426 4.535-3.075 7.489-1.682.572.27 1.117.607 1.639.969 10.649 7.317 25.278 7.519 35.967.329 1.059-.812 2.191-1.474 3.503-1.812 2.551-.655 4.93.282 6.299 2.514 1.564 2.549 1.544 5.037-.383 7.016-2.956 3.034-6.511 5.229-10.461 6.761-3.735 1.448-7.826 2.177-11.875 2.661.611.665.899.992 1.281 1.376 5.498 5.524 11.02 11.025 16.5 16.566 1.867 1.888 2.257 4.229 1.229 6.425-1.124 2.4-3.64 3.979-6.107 3.81-1.563-.108-2.782-.886-3.865-1.977-4.149-4.175-8.376-8.273-12.441-12.527-1.183-1.237-1.752-1.003-2.796.071-4.174 4.297-8.416 8.528-12.683 12.735-1.916 1.889-4.196 2.229-6.418 1.15-2.362-1.145-3.865-3.556-3.749-5.979.08-1.639.886-2.891 2.011-4.014 5.441-5.433 10.867-10.88 16.295-16.322.359-.362.694-.746 1.217-1.305z" />
    <path d="M47.55 48.329c-13.205-.045-24.033-10.992-23.956-24.218C23.67 10.739 34.505-.037 47.84 0c13.362.036 24.087 10.967 24.02 24.478-.068 13.199-10.971 23.897-24.31 23.851zm12.001-24.186c-.023-6.567-5.253-11.795-11.807-11.801-6.609-.007-11.886 5.316-11.835 11.943.049 6.542 5.324 11.733 11.896 11.709 6.552-.023 11.768-5.285 11.746-11.851z" />
  </symbol>
  <symbol id="phone" viewBox="0 0 578.106 578.106">
    <path d="M577.83 456.128c1.225 9.385-1.635 17.545-8.568 24.48l-81.396 80.781c-3.672 4.08-8.465 7.551-14.381 10.404-5.916 2.857-11.729 4.693-17.439 5.508-.408 0-1.635.105-3.676.309-2.037.203-4.689.307-7.953.307-7.754 0-20.301-1.326-37.641-3.979s-38.555-9.182-63.645-19.584c-25.096-10.404-53.553-26.012-85.376-46.818-31.823-20.805-65.688-49.367-101.592-85.68-28.56-28.152-52.224-55.08-70.992-80.783-18.768-25.705-33.864-49.471-45.288-71.299-11.425-21.828-19.993-41.616-25.705-59.364S4.59 177.362 2.55 164.51-.306 141.56.102 134.216c.408-7.344.612-11.424.612-12.24.816-5.712 2.652-11.526 5.508-17.442s6.324-10.71 10.404-14.382L98.022 8.756c5.712-5.712 12.24-8.568 19.584-8.568 5.304 0 9.996 1.53 14.076 4.59s7.548 6.834 10.404 11.322l65.484 124.236c3.672 6.528 4.692 13.668 3.06 21.42-1.632 7.752-5.1 14.28-10.404 19.584l-29.988 29.988c-.816.816-1.53 2.142-2.142 3.978s-.918 3.366-.918 4.59c1.632 8.568 5.304 18.36 11.016 29.376 4.896 9.792 12.444 21.726 22.644 35.802s24.684 30.293 43.452 48.653c18.36 18.77 34.68 33.354 48.96 43.76 14.277 10.4 26.215 18.053 35.803 22.949 9.588 4.896 16.932 7.854 22.031 8.871l7.648 1.531c.816 0 2.145-.307 3.979-.918 1.836-.613 3.162-1.326 3.979-2.143l34.883-35.496c7.348-6.527 15.912-9.791 25.705-9.791 6.938 0 12.443 1.223 16.523 3.672h.611l118.115 69.768c8.571 5.308 13.67 12.038 15.303 20.198z" fill="#010002" />
  </symbol>
  <symbol id="placeholder" viewBox="0 0 54.757 54.757">
    <path d="M27.557 12c-3.859 0-7 3.141-7 7s3.141 7 7 7 7-3.141 7-7-3.141-7-7-7zm0 12c-2.757 0-5-2.243-5-5s2.243-5 5-5 5 2.243 5 5-2.243 5-5 5z" />
    <path d="M40.94 5.617A19.052 19.052 0 0 0 27.38 0a19.05 19.05 0 0 0-13.56 5.617c-6.703 6.702-7.536 19.312-1.804 26.952L27.38 54.757 42.721 32.6c5.755-7.671 4.922-20.281-1.781-26.983zm.159 25.814L27.38 51.243 13.639 31.4C8.44 24.468 9.185 13.08 15.235 7.031 18.479 3.787 22.792 2 27.38 2s8.901 1.787 12.146 5.031c6.05 6.049 6.795 17.437 1.573 24.4z" />
  </symbol>
  <symbol id="ruble" viewBox="0 0 510.127 510.127">
    <path d="M34.786 428.963h81.158v69.572c0 3.385 1.083 6.156 3.262 8.322 2.173 2.18 4.951 3.27 8.335 3.27h60.502c3.14 0 5.857-1.09 8.152-3.27 2.295-2.166 3.439-4.938 3.439-8.322v-69.572h182.964c3.377 0 6.156-1.076 8.334-3.256 2.18-2.178 3.262-4.951 3.262-8.336v-46.377c0-3.365-1.082-6.156-3.262-8.322-2.172-2.18-4.957-3.27-8.334-3.27h-182.97v-42.754h123.184c48.305 0 87.73-14.719 118.293-44.199 30.551-29.449 45.834-67.49 45.834-114.125 0-46.604-15.283-84.646-45.834-114.125C410.548 14.749 371.116 0 322.812 0H127.535c-3.385 0-6.157 1.089-8.335 3.256-2.173 2.179-3.262 4.969-3.262 8.335v227.896H34.786c-3.384 0-6.157 1.145-8.335 3.439-2.172 2.295-3.262 5.012-3.262 8.151v53.978c0 3.385 1.083 6.158 3.262 8.336 2.179 2.18 4.945 3.256 8.335 3.256h81.158v42.754H34.786c-3.384 0-6.157 1.09-8.335 3.27-2.172 2.166-3.262 4.951-3.262 8.322v46.377c0 3.385 1.083 6.158 3.262 8.336 2.178 2.181 4.95 3.257 8.335 3.257zM199.628 77.179h115.938c25.6 0 46.248 7.485 61.953 22.46 15.697 14.976 23.549 34.547 23.549 58.691 0 24.156-7.852 43.733-23.549 58.691-15.705 14.988-36.354 22.473-61.953 22.473H199.628V77.179z" fill="#df061e" />
  </symbol>
  <symbol id="shopping-cart" viewBox="0 0 511.999 511.999">
    <path d="M214.685 402.828c-24.829 0-45.029 20.2-45.029 45.029 0 24.829 20.2 45.029 45.029 45.029s45.029-20.2 45.029-45.029c-.001-24.829-20.201-45.029-45.029-45.029zm0 64.914c-10.966 0-19.887-8.922-19.887-19.887 0-10.966 8.922-19.887 19.887-19.887s19.887 8.922 19.887 19.887c0 10.967-8.922 19.887-19.887 19.887zM372.63 402.828c-24.829 0-45.029 20.2-45.029 45.029 0 24.829 20.2 45.029 45.029 45.029s45.029-20.2 45.029-45.029c-.001-24.829-20.201-45.029-45.029-45.029zm0 64.914c-10.966 0-19.887-8.922-19.887-19.887 0-10.966 8.922-19.887 19.887-19.887 10.966 0 19.887 8.922 19.887 19.887 0 10.967-8.922 19.887-19.887 19.887zM383.716 165.755H203.567c-6.943 0-12.571 5.628-12.571 12.571s5.629 12.571 12.571 12.571h180.149c6.943 0 12.571-5.628 12.571-12.571 0-6.944-5.628-12.571-12.571-12.571zM373.911 231.035H213.373c-6.943 0-12.571 5.628-12.571 12.571s5.628 12.571 12.571 12.571H373.91c6.943 0 12.571-5.628 12.571-12.571 0-6.942-5.628-12.571-12.57-12.571z" />
    <path d="M506.341 109.744a25.04 25.04 0 0 0-19.489-9.258H95.278L87.37 62.097a25.173 25.173 0 0 0-14.614-17.989l-55.177-23.95c-6.37-2.767-13.773.156-16.536 6.524-2.766 6.37.157 13.774 6.524 16.537L62.745 67.17l60.826 295.261c2.396 11.628 12.752 20.068 24.625 20.068h301.166c6.943 0 12.571-5.628 12.571-12.571s-5.628-12.571-12.571-12.571H148.197l-7.399-35.916H451.69c11.872 0 22.229-8.44 24.624-20.068l35.163-170.675a25.043 25.043 0 0 0-5.136-20.954zM451.69 296.301H135.619l-35.161-170.674 386.393.001-35.161 170.673z" />
  </symbol>
  <symbol id="smartphone-call" viewBox="0 0 35 35">
    <path d="M25.302 0H9.698a2.37 2.37 0 0 0-2.364 2.364v30.271A2.371 2.371 0 0 0 9.698 35h15.604a2.37 2.37 0 0 0 2.364-2.364V2.364A2.37 2.37 0 0 0 25.302 0zM15.004 1.704h4.992a.286.286 0 0 1 0 .573h-4.992a.286.286 0 1 1 0-.573zM17.5 33.818a1.182 1.182 0 1 1 0-2.364 1.182 1.182 0 0 1 0 2.364zm8.521-3.193H8.979V3.749h17.042v26.876z" />
  </symbol>
  <symbol id="star" viewBox="0 0 19.481 19.481">
    <path d="M10.201.758l2.478 5.865 6.344.545a.5.5 0 0 1 .285.876l-4.812 4.169 1.442 6.202a.5.5 0 0 1-.745.541l-5.452-3.288-5.452 3.288a.5.5 0 0 1-.745-.541l1.442-6.202-4.813-4.17a.5.5 0 0 1 .285-.876l6.344-.545L9.28.758a.5.5 0 0 1 .921 0z" />
  </symbol>
  <symbol id="user" viewBox="0 0 482.9 482.9">
    <g fill="#df061e">
      <path d="M239.7 260.2h3.2c29.3-.5 53-10.8 70.5-30.5 38.5-43.4 32.1-117.8 31.4-124.9-2.5-53.3-27.7-78.8-48.5-90.7C280.8 5.2 262.7.4 242.5 0H240.8c-11.1 0-32.9 1.8-53.8 13.7-21 11.9-46.6 37.4-49.1 91.1-.7 7.1-7.1 81.5 31.4 124.9 17.4 19.7 41.1 30 70.4 30.5zm-75.1-152.9c0-.3.1-.6.1-.8 3.3-71.7 54.2-79.4 76-79.4H241.9c27 .6 72.9 11.6 76 79.4 0 .3 0 .6.1.8.1.7 7.1 68.7-24.7 104.5-12.6 14.2-29.4 21.2-51.5 21.4h-1c-22-.2-38.9-7.2-51.4-21.4-31.7-35.6-24.9-103.9-24.8-104.5z" />
      <path d="M446.8 383.6v-.3c0-.8-.1-1.6-.1-2.5-.6-19.8-1.9-66.1-45.3-80.9-.3-.1-.7-.2-1-.3-45.1-11.5-82.6-37.5-83-37.8-6.1-4.3-14.5-2.8-18.8 3.3-4.3 6.1-2.8 14.5 3.3 18.8 1.7 1.2 41.5 28.9 91.3 41.7 23.3 8.3 25.9 33.2 26.6 56 0 .9 0 1.7.1 2.5.1 9-.5 22.9-2.1 30.9-16.2 9.2-79.7 41-176.3 41-96.2 0-160.1-31.9-176.4-41.1-1.6-8-2.3-21.9-2.1-30.9 0-.8.1-1.6.1-2.5.7-22.8 3.3-47.7 26.6-56 49.8-12.8 89.6-40.6 91.3-41.7 6.1-4.3 7.6-12.7 3.3-18.8-4.3-6.1-12.7-7.6-18.8-3.3-.4.3-37.7 26.3-83 37.8-.4.1-.7.2-1 .3-43.4 14.9-44.7 61.2-45.3 80.9 0 .9 0 1.7-.1 2.5v.3c-.1 5.2-.2 31.9 5.1 45.3 1 2.6 2.8 4.8 5.2 6.3 3 2 74.9 47.8 195.2 47.8s192.2-45.9 195.2-47.8c2.3-1.5 4.2-3.7 5.2-6.3 5-13.3 4.9-40 4.8-45.2z" />
    </g>
  </symbol>
  <symbol id="vk" viewBox="0 0 548.358 548.358">
    <path d="M545.451 400.298c-.664-1.431-1.283-2.618-1.858-3.569-9.514-17.135-27.695-38.167-54.532-63.102l-.567-.571-.284-.28-.287-.287h-.288c-12.18-11.611-19.893-19.418-23.123-23.415-5.91-7.614-7.234-15.321-4.004-23.13 2.282-5.9 10.854-18.36 25.696-37.397 7.807-10.089 13.99-18.175 18.556-24.267 32.931-43.78 47.208-71.756 42.828-83.939l-1.701-2.847c-1.143-1.714-4.093-3.282-8.846-4.712-4.764-1.427-10.853-1.663-18.278-.712l-82.224.568c-1.332-.472-3.234-.428-5.712.144l-3.713.859-1.431.715-1.136.859c-.952.568-1.999 1.567-3.142 2.995-1.137 1.423-2.088 3.093-2.848 4.996-8.952 23.031-19.13 44.444-30.553 64.238-7.043 11.803-13.511 22.032-19.418 30.693-5.899 8.658-10.848 15.037-14.842 19.126-4 4.093-7.61 7.372-10.852 9.849-3.237 2.478-5.708 3.525-7.419 3.142-1.715-.383-3.33-.763-4.859-1.143-2.663-1.714-4.805-4.045-6.42-6.995-1.622-2.95-2.714-6.663-3.285-11.136-.568-4.476-.904-8.326-1-11.563-.089-3.233-.048-7.806.145-13.706.198-5.903.287-9.897.287-11.991 0-7.234.141-15.085.424-23.555.288-8.47.521-15.181.716-20.125.194-4.949.284-10.185.284-15.705s-.336-9.849-1-12.991a44.442 44.442 0 0 0-2.99-9.137c-1.335-2.95-3.289-5.232-5.853-6.852-2.569-1.618-5.763-2.902-9.564-3.856-10.089-2.283-22.936-3.518-38.547-3.71-35.401-.38-58.148 1.906-68.236 6.855-3.997 2.091-7.614 4.948-10.848 8.562-3.427 4.189-3.905 6.475-1.431 6.851 11.422 1.711 19.508 5.804 24.267 12.275l1.715 3.429c1.334 2.474 2.666 6.854 3.999 13.134 1.331 6.28 2.19 13.227 2.568 20.837.95 13.897.95 25.793 0 35.689-.953 9.9-1.853 17.607-2.712 23.127-.859 5.52-2.143 9.993-3.855 13.418-1.715 3.426-2.856 5.52-3.428 6.28-.571.76-1.047 1.239-1.425 1.427a21.387 21.387 0 0 1-7.71 1.431c-2.667 0-5.901-1.334-9.707-4-3.805-2.666-7.754-6.328-11.847-10.992-4.093-4.665-8.709-11.184-13.85-19.558-5.137-8.374-10.467-18.271-15.987-29.691l-4.567-8.282c-2.855-5.328-6.755-13.086-11.704-23.267-4.952-10.185-9.329-20.037-13.134-29.554-1.521-3.997-3.806-7.04-6.851-9.134l-1.429-.859c-.95-.76-2.475-1.567-4.567-2.427a30.301 30.301 0 0 0-6.567-1.854l-78.229.568c-7.994 0-13.418 1.811-16.274 5.428l-1.143 1.711c-.571.953-.859 2.475-.859 4.57 0 2.094.571 4.664 1.714 7.707 11.42 26.84 23.839 52.725 37.257 77.659 13.418 24.934 25.078 45.019 34.973 60.237 9.897 15.229 19.985 29.602 30.264 43.112 10.279 13.515 17.083 22.176 20.412 25.981 3.333 3.812 5.951 6.662 7.854 8.565l7.139 6.851c4.568 4.569 11.276 10.041 20.127 16.416 8.853 6.379 18.654 12.659 29.408 18.85 10.756 6.181 23.269 11.225 37.546 15.126 14.275 3.905 28.169 5.472 41.684 4.716h32.834c6.659-.575 11.704-2.669 15.133-6.283l1.136-1.431c.764-1.136 1.479-2.901 2.139-5.276.668-2.379 1-5 1-7.851-.195-8.183.428-15.558 1.852-22.124 1.423-6.564 3.045-11.513 4.859-14.846 1.813-3.33 3.859-6.14 6.136-8.418 2.282-2.283 3.908-3.666 4.862-4.142.948-.479 1.705-.804 2.276-.999 4.568-1.522 9.944-.048 16.136 4.429 6.187 4.473 11.99 9.996 17.418 16.56 5.425 6.57 11.943 13.941 19.555 22.124 7.617 8.186 14.277 14.271 19.985 18.274l5.708 3.426c3.812 2.286 8.761 4.38 14.853 6.283 6.081 1.902 11.409 2.378 15.984 1.427l73.087-1.14c7.229 0 12.854-1.197 16.844-3.572 3.998-2.379 6.373-5 7.139-7.851.764-2.854.805-6.092.145-9.712-.677-3.611-1.344-6.136-2.008-7.563z" />
  </symbol>
  <symbol id="webarium" viewBox="0 0 1202.038 217.904">
    <g fill="#FFF">
      <path d="M105.999 100.906l-37 116.998H45L4 77.906h19l35 116.998h1L95 77.906h23l35.999 116.998h1l35-116.998h19l-41 139.998h-24L107 100.906h-1.001zM232.997 77.906h108.998v16h-90.998v45.999h64.998v16h-64.998v45.999h92.998v16H232.997V77.906zM370.995 77.906h59.998c34.199 0 50 16 50 38 0 11.199-5.801 17.8-12 21.799-3.4 2.2-7.4 4-12 5.2v1c6.199 1.2 11.6 3.2 16.6 6.2 10 5.399 15.6 13 16.4 27.8 0 21.799-17.801 39.999-52 39.999h-66.998V77.906zm59.998 59.999c22.199 0 32-10 32-21.999 0-12-9.801-22-32-22h-42v43.999h42zm-42 16v47.999h49c24 0 34-10.199 34-23.999 0-14.2-10-24-33.801-24h-49.199zM647.993 217.904h-19l-14-32h-79l-13.998 32h-19l60.998-139.998h23l61 139.998zm-105-47.999h65l-32-72.999h-1l-32 72.999zM729.993 77.906c36.998 0 55.998 19.2 55.998 44 0 15.999-7.199 25.799-14.398 31.999a47.039 47.039 0 0 1-14.602 8v1l39 54.999h-22l-36.998-51.999h-49v51.999h-18V77.906h60zm0 16h-42v55.999h42c26.199 0 37.998-12 37.998-27.999 0-16-11.799-28-37.998-28zM839.991 217.904h-17.998V77.906h17.998v139.998zM877.991 162.905V77.906h18v84.999c0 25.999 17 42.999 43 42.999 25.998 0 42.998-17 42.998-42.999V77.906h18v84.999c0 34.999-24 58.999-60.998 58.999-37 0-61-24-61-58.999zM1108.989 196.904l-44-89.998h-1l-13 110.998h-18l17-139.998h20l46.998 96.999h1l47-96.999h20l17 139.998h-18l-13-110.998h-1l-44 89.998h-16.998z" />
    </g>
    <g fill="#FFF">
      <path d="M3.223 42.998V.342h13.74c3.769 0 7.158.854 10.166 2.563 3.007 1.71 5.356 4.121 7.046 7.236 1.689 3.116 2.544 6.606 2.563 10.474v1.963c0 3.906-.825 7.407-2.476 10.503s-3.975 5.518-6.973 7.266c-2.999 1.748-6.343 2.632-10.034 2.651H3.223zM13.506 8.281v26.807h3.574c2.949 0 5.215-1.05 6.797-3.149s2.373-5.22 2.373-9.36v-1.846c0-4.121-.791-7.227-2.373-9.316s-3.887-3.135-6.914-3.135h-3.457zM52.969 42.998H42.715V.342h10.254v42.656zM95.039 37.725c-1.582 1.758-3.896 3.174-6.943 4.248s-6.387 1.611-10.02 1.611c-5.586 0-10.049-1.709-13.389-5.127s-5.127-8.174-5.361-14.268l-.029-3.691c0-4.199.742-7.866 2.227-11.001 1.484-3.135 3.608-5.547 6.372-7.236C70.66.573 73.858-.273 77.491-.273c5.313 0 9.438 1.216 12.378 3.647 2.939 2.432 4.653 6.06 5.142 10.884h-9.902c-.352-2.383-1.113-4.082-2.285-5.098s-2.832-1.523-4.98-1.523c-2.578 0-4.57 1.094-5.977 3.281s-2.12 5.313-2.139 9.375v2.578c0 4.258.728 7.456 2.183 9.595 1.455 2.139 3.745 3.208 6.87 3.208 2.676 0 4.668-.596 5.977-1.787v-6.621H77.61v-7.061h17.432v17.52zM111.972 42.998h-10.253V.342h10.253v42.656zM151.757 8.281h-12.803v34.717h-10.283V8.281h-12.568V.342h35.654v7.939zM176.806 35.029h-14.092l-2.461 7.969h-10.986L164.912.342h9.668l15.762 42.656h-11.045l-2.491-7.969zm-11.631-7.939h9.17l-4.6-14.795-4.57 14.795zM203.729 35.088h17.9v7.91h-28.184V.342h10.283v34.746zM265.136 35.029h-14.092l-2.461 7.969h-10.986L253.242.342h9.668l15.762 42.656h-11.045l-2.491-7.969zm-11.631-7.939h9.17l-4.6-14.795-4.57 14.795zM316.083 37.725c-1.582 1.758-3.896 3.174-6.943 4.248s-6.387 1.611-10.02 1.611c-5.586 0-10.049-1.709-13.389-5.127s-5.127-8.174-5.361-14.268l-.029-3.691c0-4.199.742-7.866 2.227-11.001s3.609-5.547 6.373-7.236c2.764-1.688 5.961-2.534 9.594-2.534 5.313 0 9.439 1.216 12.379 3.647s4.652 6.06 5.141 10.884h-9.902c-.352-2.383-1.113-4.082-2.285-5.098s-2.832-1.523-4.98-1.523c-2.578 0-4.57 1.094-5.977 3.281s-2.119 5.313-2.139 9.375v2.578c0 4.258.729 7.456 2.184 9.595s3.744 3.208 6.869 3.208c2.676 0 4.668-.596 5.977-1.787v-6.621h-7.148v-7.061h17.432v17.52zM348.515 24.893h-16.172v10.195h19.102v7.91H322.06V.342h29.443v7.939h-19.16v8.994h16.172v7.618zM391.259 42.998h-10.225l-15.117-26.543v26.543h-10.283V.342h10.283l15.088 26.543V.342h10.254v42.656zM432.274 28.555c-.137 2.969-.938 5.591-2.402 7.866s-3.52 4.038-6.166 5.288-5.67 1.875-9.068 1.875c-5.605 0-10.02-1.826-13.242-5.479s-4.834-8.809-4.834-15.469v-2.109c0-4.18.729-7.837 2.184-10.972S402.294 4 405.028 2.29c2.734-1.709 5.898-2.563 9.492-2.563 5.176 0 9.336 1.362 12.48 4.087s4.932 6.479 5.361 11.265h-10.254c-.078-2.598-.732-4.463-1.963-5.596s-3.105-1.699-5.625-1.699c-2.559 0-4.434.957-5.625 2.871s-1.816 4.971-1.875 9.17v3.018c0 4.551.572 7.803 1.715 9.756s3.109 2.93 5.902 2.93c2.363 0 4.17-.557 5.42-1.67s1.914-2.881 1.992-5.303h10.226zM452.753 18.857L460.605.341h11.104l-13.74 27.334v15.322h-10.43V27.676L433.827.342h11.045l7.881 18.515z" />
    </g>
  </symbol>
  <symbol id="whatsapp-logo" viewBox="0 0 90 90">
    <path d="M90 43.841c0 24.213-19.779 43.841-44.182 43.841a44.256 44.256 0 0 1-21.357-5.455L0 90l7.975-23.522a43.38 43.38 0 0 1-6.34-22.637C1.635 19.628 21.416 0 45.818 0 70.223 0 90 19.628 90 43.841zM45.818 6.982c-20.484 0-37.146 16.535-37.146 36.859 0 8.065 2.629 15.534 7.076 21.61L11.107 79.14l14.275-4.537A37.122 37.122 0 0 0 45.819 80.7c20.481 0 37.146-16.533 37.146-36.857S66.301 6.982 45.818 6.982zm22.311 46.956c-.273-.447-.994-.717-2.076-1.254-1.084-.537-6.41-3.138-7.4-3.495-.993-.358-1.717-.538-2.438.537-.721 1.076-2.797 3.495-3.43 4.212-.632.719-1.263.809-2.347.271-1.082-.537-4.571-1.673-8.708-5.333-3.219-2.848-5.393-6.364-6.025-7.441-.631-1.075-.066-1.656.475-2.191.488-.482 1.084-1.255 1.625-1.882.543-.628.723-1.075 1.082-1.793.363-.717.182-1.344-.09-1.883-.27-.537-2.438-5.825-3.34-7.977-.902-2.15-1.803-1.792-2.436-1.792-.631 0-1.354-.09-2.076-.09s-1.896.269-2.889 1.344c-.992 1.076-3.789 3.676-3.789 8.963 0 5.288 3.879 10.397 4.422 11.113.541.716 7.49 11.92 18.5 16.223C58.2 65.771 58.2 64.336 60.186 64.156c1.984-.179 6.406-2.599 7.312-5.107.9-2.512.9-4.663.631-5.111z" />
  </symbol>
</svg>
