<?xml version="1.0" encoding="utf-8"?>
<!-- Generator: Adobe Illustrator 16.0.0, SVG Export Plug-In . SVG Version: 6.00 Build 0)  -->
<!DOCTYPE svg PUBLIC "-//W3C//DTD SVG 1.1//EN" "http://www.w3.org/Graphics/SVG/1.1/DTD/svg11.dtd">
<svg version="1.1" id="Слой_1" xmlns="http://www.w3.org/2000/svg" xmlns:xlink="http://www.w3.org/1999/xlink" x="0px" y="0px"
	 width="1202.038px" height="217.904px" viewBox="0 0 1202.038 217.904" enable-background="new 0 0 1202.038 217.904"
	 xml:space="preserve">
<g>
	<path fill="#FFFFFF" d="M105.999,100.906l-37,116.998H45L4,77.906h19l35,116.998h1l36-116.998h23l35.999,116.998h1l35-116.998h19
		l-41,139.998h-24l-36.999-116.998H105.999z"/>
	<path fill="#FFFFFF" d="M232.997,77.906h108.998v16h-90.998v45.999h64.998v16h-64.998v45.999h92.998v16H232.997V77.906z"/>
	<path fill="#FFFFFF" d="M370.995,77.906h59.998c34.199,0,50,16,50,38c0,11.199-5.801,17.8-12,21.799c-3.4,2.2-7.4,4-12,5.2v1
		c6.199,1.2,11.6,3.2,16.6,6.2c10,5.399,15.6,13,16.4,27.8c0,21.799-17.801,39.999-52,39.999h-66.998V77.906z M430.993,137.905
		c22.199,0,32-10,32-21.999c0-12-9.801-22-32-22h-42v43.999H430.993z M388.993,153.905v47.999h49c24,0,34-10.199,34-23.999
		c0-14.2-10-24-33.801-24H388.993z"/>
	<path fill="#FFFFFF" d="M647.993,217.904h-19l-14-32h-79l-13.998,32h-19l60.998-139.998h23L647.993,217.904z M542.993,169.905h65
		l-32-72.999h-1L542.993,169.905z"/>
	<path fill="#FFFFFF" d="M729.993,77.906c36.998,0,55.998,19.2,55.998,44c0,15.999-7.199,25.799-14.398,31.999
		c-4.201,3.4-9.201,6.2-14.602,8v1l39,54.999h-22l-36.998-51.999h-49v51.999h-18V77.906H729.993z M729.993,93.906h-42v55.999h42
		c26.199,0,37.998-12,37.998-27.999C767.991,105.906,756.192,93.906,729.993,93.906z"/>
	<path fill="#FFFFFF" d="M839.991,217.904h-17.998V77.906h17.998V217.904z"/>
	<path fill="#FFFFFF" d="M877.991,162.905V77.906h18v84.999c0,25.999,17,42.999,43,42.999c25.998,0,42.998-17,42.998-42.999V77.906
		h18v84.999c0,34.999-24,58.999-60.998,58.999C901.991,221.904,877.991,197.904,877.991,162.905z"/>
	<path fill="#FFFFFF" d="M1108.989,196.904l-44-89.998h-1l-13,110.998h-18l17-139.998h20l46.998,96.999h1l47-96.999h20l17,139.998
		h-18l-13-110.998h-1l-44,89.998H1108.989z"/>
</g>
<g>
	<path fill="#FFFFFF" d="M3.223,42.998V0.342h13.74c3.769,0,7.158,0.854,10.166,2.563c3.007,1.71,5.356,4.121,7.046,7.236
		c1.689,3.116,2.544,6.606,2.563,10.474v1.963c0,3.906-0.825,7.407-2.476,10.503c-1.651,3.096-3.975,5.518-6.973,7.266
		c-2.999,1.748-6.343,2.632-10.034,2.651H3.223z M13.506,8.281v26.807h3.574c2.949,0,5.215-1.05,6.797-3.149s2.373-5.22,2.373-9.36
		v-1.846c0-4.121-0.791-7.227-2.373-9.316s-3.887-3.135-6.914-3.135H13.506z"/>
	<path fill="#FFFFFF" d="M52.969,42.998H42.715V0.342h10.254V42.998z"/>
	<path fill="#FFFFFF" d="M95.039,37.725c-1.582,1.758-3.896,3.174-6.943,4.248s-6.387,1.611-10.02,1.611
		c-5.586,0-10.049-1.709-13.389-5.127s-5.127-8.174-5.361-14.268l-0.029-3.691c0-4.199,0.742-7.866,2.227-11.001
		c1.484-3.135,3.608-5.547,6.372-7.236c2.764-1.688,5.962-2.534,9.595-2.534c5.313,0,9.438,1.216,12.378,3.647
		c2.939,2.432,4.653,6.06,5.142,10.884h-9.902c-0.352-2.383-1.113-4.082-2.285-5.098s-2.832-1.523-4.98-1.523
		c-2.578,0-4.57,1.094-5.977,3.281s-2.12,5.313-2.139,9.375v2.578c0,4.258,0.728,7.456,2.183,9.595
		c1.455,2.139,3.745,3.208,6.87,3.208c2.676,0,4.668-0.596,5.977-1.787v-6.621h-7.148v-7.061h17.432V37.725z"/>
	<path fill="#FFFFFF" d="M111.972,42.998h-10.253V0.342h10.253V42.998z"/>
	<path fill="#FFFFFF" d="M151.757,8.281h-12.803v34.717h-10.283V8.281h-12.568V0.342h35.654V8.281z"/>
	<path fill="#FFFFFF" d="M176.806,35.029h-14.092l-2.461,7.969h-10.986l15.645-42.656h9.668l15.762,42.656h-11.045L176.806,35.029z
		 M165.175,27.09h9.17l-4.6-14.795L165.175,27.09z"/>
	<path fill="#FFFFFF" d="M203.729,35.088h17.9v7.91h-28.184V0.342h10.283V35.088z"/>
	<path fill="#FFFFFF" d="M265.136,35.029h-14.092l-2.461,7.969h-10.986l15.645-42.656h9.668l15.762,42.656h-11.045L265.136,35.029z
		 M253.505,27.09h9.17l-4.6-14.795L253.505,27.09z"/>
	<path fill="#FFFFFF" d="M316.083,37.725c-1.582,1.758-3.896,3.174-6.943,4.248s-6.387,1.611-10.02,1.611
		c-5.586,0-10.049-1.709-13.389-5.127s-5.127-8.174-5.361-14.268l-0.029-3.691c0-4.199,0.742-7.866,2.227-11.001
		s3.609-5.547,6.373-7.236c2.764-1.688,5.961-2.534,9.594-2.534c5.313,0,9.439,1.216,12.379,3.647s4.652,6.06,5.141,10.884h-9.902
		c-0.352-2.383-1.113-4.082-2.285-5.098s-2.832-1.523-4.98-1.523c-2.578,0-4.57,1.094-5.977,3.281s-2.119,5.313-2.139,9.375v2.578
		c0,4.258,0.729,7.456,2.184,9.595s3.744,3.208,6.869,3.208c2.676,0,4.668-0.596,5.977-1.787v-6.621h-7.148v-7.061h17.432V37.725z"
		/>
	<path fill="#FFFFFF" d="M348.515,24.893h-16.172v10.195h19.102v7.91H322.06V0.342h29.443v7.939h-19.16v8.994h16.172V24.893z"/>
	<path fill="#FFFFFF" d="M391.259,42.998h-10.225l-15.117-26.543v26.543h-10.283V0.342h10.283l15.088,26.543V0.342h10.254V42.998z"
		/>
	<path fill="#FFFFFF" d="M432.274,28.555c-0.137,2.969-0.938,5.591-2.402,7.866s-3.52,4.038-6.166,5.288s-5.67,1.875-9.068,1.875
		c-5.605,0-10.02-1.826-13.242-5.479s-4.834-8.809-4.834-15.469v-2.109c0-4.18,0.729-7.837,2.184-10.972S402.294,4,405.028,2.29
		c2.734-1.709,5.898-2.563,9.492-2.563c5.176,0,9.336,1.362,12.48,4.087s4.932,6.479,5.361,11.265h-10.254
		c-0.078-2.598-0.732-4.463-1.963-5.596s-3.105-1.699-5.625-1.699c-2.559,0-4.434,0.957-5.625,2.871s-1.816,4.971-1.875,9.17v3.018
		c0,4.551,0.572,7.803,1.715,9.756s3.109,2.93,5.902,2.93c2.363,0,4.17-0.557,5.42-1.67s1.914-2.881,1.992-5.303H432.274z"/>
	<path fill="#FFFFFF" d="M452.753,18.857l7.852-18.516h11.104l-13.74,27.334v15.322h-10.43V27.676L433.827,0.342h11.045
		L452.753,18.857z"/>
</g>
</svg>
